<mxfile host="65bd71144e">
    <diagram id="ZDHuAx6SI9eVBnoInXy0" name="Page-1">
        <mxGraphModel dx="1596" dy="456" grid="1" gridSize="10" guides="1" tooltips="1" connect="1" arrows="1" fold="1" page="1" pageScale="1" pageWidth="850" pageHeight="1100" math="0" shadow="0">
            <root>
                <mxCell id="0"/>
                <mxCell id="1" parent="0"/>
                <mxCell id="129" value="" style="group" parent="1" vertex="1" connectable="0">
                    <mxGeometry x="-72" y="100" width="920" height="930" as="geometry"/>
                </mxCell>
                <mxCell id="2" value="" style="rounded=0;whiteSpace=wrap;html=1;" parent="129" vertex="1">
                    <mxGeometry width="919.9999999999999" height="66.270783847981" as="geometry"/>
                </mxCell>
                <mxCell id="3" value="GET" style="text;html=1;strokeColor=none;fillColor=none;align=center;verticalAlign=middle;whiteSpace=wrap;rounded=0;" parent="129" vertex="1">
                    <mxGeometry x="199.99999999999997" y="46.3895486935867" width="59.99999999999999" height="19.881235154394297" as="geometry"/>
                </mxCell>
                <mxCell id="4" value="POST" style="text;html=1;strokeColor=none;fillColor=none;align=center;verticalAlign=middle;whiteSpace=wrap;rounded=0;" parent="129" vertex="1">
                    <mxGeometry x="679.9999999999999" y="46.3895486935867" width="59.99999999999999" height="19.881235154394297" as="geometry"/>
                </mxCell>
                <mxCell id="5" value="METHOD" style="text;html=1;strokeColor=none;fillColor=none;align=center;verticalAlign=middle;whiteSpace=wrap;rounded=0;" parent="129" vertex="1">
                    <mxGeometry x="429.99999999999994" width="59.99999999999999" height="19.881235154394297" as="geometry"/>
                </mxCell>
                <mxCell id="6" value="" style="endArrow=none;html=1;entryX=1;entryY=1;entryDx=0;entryDy=0;" parent="129" target="2" edge="1">
                    <mxGeometry width="50" height="50" relative="1" as="geometry">
                        <mxPoint x="259.99999999999994" as="sourcePoint"/>
                        <mxPoint x="659.9999999999999" y="66.270783847981" as="targetPoint"/>
                    </mxGeometry>
                </mxCell>
                <mxCell id="7" value="ShowForm()" style="rounded=0;whiteSpace=wrap;html=1;" parent="129" vertex="1">
                    <mxGeometry y="66.270783847981" width="459.99999999999994" height="50.80760095011876" as="geometry"/>
                </mxCell>
                <mxCell id="33" value="" style="group" parent="129" vertex="1" connectable="0">
                    <mxGeometry x="459.99999999999994" y="66.270783847981" width="459.99999999999994" height="50.80760095011876" as="geometry"/>
                </mxCell>
                <mxCell id="34" value="" style="rounded=0;whiteSpace=wrap;html=1;" parent="33" vertex="1">
                    <mxGeometry width="459.99999999999994" height="50.80760095011876" as="geometry"/>
                </mxCell>
                <mxCell id="35" value="" style="endArrow=none;html=1;" parent="33" edge="1">
                    <mxGeometry width="50" height="50" relative="1" as="geometry">
                        <mxPoint as="sourcePoint"/>
                        <mxPoint x="459.99999999999994" y="50.80760095011876" as="targetPoint"/>
                    </mxGeometry>
                </mxCell>
                <mxCell id="36" value="communication" style="text;html=1;strokeColor=none;fillColor=none;align=center;verticalAlign=middle;whiteSpace=wrap;rounded=0;" parent="33" vertex="1">
                    <mxGeometry x="99.99999999999999" y="-0.0022090261282640238" width="241.49999999999997" height="15.242280285035626" as="geometry"/>
                </mxCell>
                <mxCell id="37" value="email" style="text;html=1;strokeColor=none;fillColor=none;align=center;verticalAlign=middle;whiteSpace=wrap;rounded=0;" parent="33" vertex="1">
                    <mxGeometry x="22.999999999999996" y="35.56532066508312" width="137.99999999999997" height="15.242280285035626" as="geometry"/>
                </mxCell>
                <mxCell id="38" value="phone" style="text;html=1;strokeColor=none;fillColor=none;align=center;verticalAlign=middle;whiteSpace=wrap;rounded=0;" parent="33" vertex="1">
                    <mxGeometry x="160.99999999999997" y="35.56532066508312" width="137.99999999999997" height="15.242280285035626" as="geometry"/>
                </mxCell>
                <mxCell id="41" value="mail" style="text;html=1;strokeColor=none;fillColor=none;align=center;verticalAlign=middle;whiteSpace=wrap;rounded=0;" parent="33" vertex="1">
                    <mxGeometry x="321.99999999999994" y="35.56532066508312" width="137.99999999999997" height="15.242280285035626" as="geometry"/>
                </mxCell>
                <mxCell id="44" value="" style="group" parent="129" vertex="1" connectable="0">
                    <mxGeometry x="459.99999999999994" y="117.07838479809975" width="306.66666666666663" height="101.61520190023757" as="geometry"/>
                </mxCell>
                <mxCell id="45" value="" style="rounded=0;whiteSpace=wrap;html=1;" parent="44" vertex="1">
                    <mxGeometry width="153.33333333333331" height="50.80760095011876" as="geometry"/>
                </mxCell>
                <mxCell id="46" value="" style="endArrow=none;html=1;" parent="44" edge="1">
                    <mxGeometry width="50" height="50" relative="1" as="geometry">
                        <mxPoint as="sourcePoint"/>
                        <mxPoint x="153.33333333333331" y="50.80760095011876" as="targetPoint"/>
                    </mxGeometry>
                </mxCell>
                <mxCell id="47" value="email == empty" style="text;html=1;strokeColor=none;fillColor=none;align=center;verticalAlign=middle;whiteSpace=wrap;rounded=0;" parent="44" vertex="1">
                    <mxGeometry width="150" height="15.24" as="geometry"/>
                </mxCell>
                <mxCell id="48" value="true" style="text;html=1;strokeColor=none;fillColor=none;align=center;verticalAlign=middle;whiteSpace=wrap;rounded=0;" parent="44" vertex="1">
                    <mxGeometry x="7.666666666666665" y="35.56532066508312" width="45.99999999999999" height="15.242280285035626" as="geometry"/>
                </mxCell>
                <mxCell id="49" value="false" style="text;html=1;strokeColor=none;fillColor=none;align=center;verticalAlign=middle;whiteSpace=wrap;rounded=0;" parent="44" vertex="1">
                    <mxGeometry x="95.83333333333331" y="35.56532066508312" width="45.99999999999999" height="15.242280285035626" as="geometry"/>
                </mxCell>
                <mxCell id="65" value="" style="rounded=0;whiteSpace=wrap;html=1;" parent="44" vertex="1">
                    <mxGeometry x="229.99999999999994" y="50.80760095011876" width="76.66666666666666" height="50.80760095011876" as="geometry"/>
                </mxCell>
                <mxCell id="130" value="Valid = false" style="rounded=0;whiteSpace=wrap;html=1;" vertex="1" parent="44">
                    <mxGeometry x="153.32999999999998" y="50.8076009501188" width="76.66666666666666" height="50.80760095011876" as="geometry"/>
                </mxCell>
                <mxCell id="50" value="" style="group" parent="129" vertex="1" connectable="0">
                    <mxGeometry x="613.3333333333333" y="117.07838479809975" width="153.33333333333331" height="50.80760095011876" as="geometry"/>
                </mxCell>
                <mxCell id="51" value="" style="rounded=0;whiteSpace=wrap;html=1;" parent="50" vertex="1">
                    <mxGeometry width="153.33333333333331" height="50.80760095011876" as="geometry"/>
                </mxCell>
                <mxCell id="52" value="" style="endArrow=none;html=1;" parent="50" edge="1">
                    <mxGeometry width="50" height="50" relative="1" as="geometry">
                        <mxPoint as="sourcePoint"/>
                        <mxPoint x="153.33333333333331" y="50.80760095011876" as="targetPoint"/>
                    </mxGeometry>
                </mxCell>
                <mxCell id="53" value="phone == empty" style="text;html=1;strokeColor=none;fillColor=none;align=center;verticalAlign=middle;whiteSpace=wrap;rounded=0;" parent="50" vertex="1">
                    <mxGeometry y="2" width="150" height="15.24" as="geometry"/>
                </mxCell>
                <mxCell id="54" value="true" style="text;html=1;strokeColor=none;fillColor=none;align=center;verticalAlign=middle;whiteSpace=wrap;rounded=0;" parent="50" vertex="1">
                    <mxGeometry x="7.666666666666665" y="35.56532066508312" width="45.99999999999999" height="15.242280285035626" as="geometry"/>
                </mxCell>
                <mxCell id="55" value="false" style="text;html=1;strokeColor=none;fillColor=none;align=center;verticalAlign=middle;whiteSpace=wrap;rounded=0;" parent="50" vertex="1">
                    <mxGeometry x="95.83333333333331" y="35.56532066508312" width="45.99999999999999" height="15.242280285035626" as="geometry"/>
                </mxCell>
                <mxCell id="56" value="" style="group" parent="129" vertex="1" connectable="0">
                    <mxGeometry x="766.6666666666666" y="117.07838479809975" width="153.33333333333331" height="50.80760095011876" as="geometry"/>
                </mxCell>
                <mxCell id="58" value="" style="endArrow=none;html=1;" parent="56" edge="1">
                    <mxGeometry width="50" height="50" relative="1" as="geometry">
                        <mxPoint as="sourcePoint"/>
                        <mxPoint x="153.33333333333331" y="50.80760095011876" as="targetPoint"/>
                    </mxGeometry>
                </mxCell>
                <mxCell id="60" value="True" style="text;html=1;strokeColor=none;fillColor=none;align=center;verticalAlign=middle;whiteSpace=wrap;rounded=0;" parent="56" vertex="1">
                    <mxGeometry x="7.666666666666665" y="35.56532066508312" width="45.99999999999999" height="15.242280285035626" as="geometry"/>
                </mxCell>
                <mxCell id="61" value="False" style="text;html=1;strokeColor=none;fillColor=none;align=center;verticalAlign=middle;whiteSpace=wrap;rounded=0;" parent="56" vertex="1">
                    <mxGeometry x="95.83333333333331" y="35.56532066508312" width="45.99999999999999" height="15.242280285035626" as="geometry"/>
                </mxCell>
                <mxCell id="71" value="" style="group" parent="56" vertex="1" connectable="0">
                    <mxGeometry width="153.33333333333331" height="50.80760095011876" as="geometry"/>
                </mxCell>
                <mxCell id="57" value="" style="rounded=0;whiteSpace=wrap;html=1;" parent="71" vertex="1">
                    <mxGeometry width="153.33333333333331" height="50.80760095011876" as="geometry"/>
                </mxCell>
                <mxCell id="59" value="streetname == empty" style="text;html=1;strokeColor=none;fillColor=none;align=center;verticalAlign=middle;whiteSpace=wrap;rounded=0;" parent="71" vertex="1">
                    <mxGeometry width="153.33333333333331" height="15.242280285035626" as="geometry"/>
                </mxCell>
                <mxCell id="137" value="" style="endArrow=none;html=1;" edge="1" parent="71">
                    <mxGeometry width="50" height="50" relative="1" as="geometry">
                        <mxPoint x="0.0033333333334439885" y="-5.684341886080802e-14" as="sourcePoint"/>
                        <mxPoint x="153.33666666666647" y="50.80760095011868" as="targetPoint"/>
                    </mxGeometry>
                </mxCell>
                <mxCell id="138" value="true" style="text;html=1;strokeColor=none;fillColor=none;align=center;verticalAlign=middle;whiteSpace=wrap;rounded=0;" vertex="1" parent="71">
                    <mxGeometry x="7.669999999999959" y="35.56532066508311" width="45.99999999999999" height="15.242280285035626" as="geometry"/>
                </mxCell>
                <mxCell id="139" value="false" style="text;html=1;strokeColor=none;fillColor=none;align=center;verticalAlign=middle;whiteSpace=wrap;rounded=0;" vertex="1" parent="71">
                    <mxGeometry x="95.8366666666667" y="35.56532066508311" width="45.99999999999999" height="15.242280285035626" as="geometry"/>
                </mxCell>
                <mxCell id="62" value="Valid = false" style="rounded=0;whiteSpace=wrap;html=1;" parent="129" vertex="1">
                    <mxGeometry x="459.99999999999994" y="167.88598574821853" width="76.66666666666666" height="50.80760095011876" as="geometry"/>
                </mxCell>
                <mxCell id="63" value="" style="rounded=0;whiteSpace=wrap;html=1;" parent="129" vertex="1">
                    <mxGeometry x="536.6666666666666" y="167.88598574821853" width="76.66666666666666" height="50.80760095011876" as="geometry"/>
                </mxCell>
                <mxCell id="67" value="" style="rounded=0;whiteSpace=wrap;html=1;" parent="129" vertex="1">
                    <mxGeometry x="843.3333333333331" y="167.88598574821853" width="76.66666666666666" height="50.80760095011876" as="geometry"/>
                </mxCell>
                <mxCell id="70" value="" style="rounded=0;whiteSpace=wrap;html=1;" parent="129" vertex="1">
                    <mxGeometry x="843.3333333333331" y="269.50118764845604" width="76.66666666666666" height="50.80760095011876" as="geometry"/>
                </mxCell>
                <mxCell id="72" value="" style="group" parent="129" vertex="1" connectable="0">
                    <mxGeometry x="766.6666666666666" y="218.69358669833727" width="153.33333333333331" height="50.80760095011876" as="geometry"/>
                </mxCell>
                <mxCell id="73" value="" style="endArrow=none;html=1;" parent="72" edge="1">
                    <mxGeometry width="50" height="50" relative="1" as="geometry">
                        <mxPoint as="sourcePoint"/>
                        <mxPoint x="153.33333333333331" y="50.80760095011876" as="targetPoint"/>
                    </mxGeometry>
                </mxCell>
                <mxCell id="74" value="True" style="text;html=1;strokeColor=none;fillColor=none;align=center;verticalAlign=middle;whiteSpace=wrap;rounded=0;" parent="72" vertex="1">
                    <mxGeometry x="7.666666666666665" y="35.56532066508312" width="45.99999999999999" height="15.242280285035626" as="geometry"/>
                </mxCell>
                <mxCell id="75" value="False" style="text;html=1;strokeColor=none;fillColor=none;align=center;verticalAlign=middle;whiteSpace=wrap;rounded=0;" parent="72" vertex="1">
                    <mxGeometry x="95.83333333333331" y="35.56532066508312" width="45.99999999999999" height="15.242280285035626" as="geometry"/>
                </mxCell>
                <mxCell id="76" value="" style="group" parent="72" vertex="1" connectable="0">
                    <mxGeometry width="153.33333333333331" height="50.80760095011876" as="geometry"/>
                </mxCell>
                <mxCell id="77" value="" style="rounded=0;whiteSpace=wrap;html=1;" parent="76" vertex="1">
                    <mxGeometry width="153.33333333333331" height="50.80760095011876" as="geometry"/>
                </mxCell>
                <mxCell id="78" value="housenumber == empty" style="text;html=1;strokeColor=none;fillColor=none;align=center;verticalAlign=middle;whiteSpace=wrap;rounded=0;" parent="76" vertex="1">
                    <mxGeometry width="153.33333333333331" height="15.242280285035626" as="geometry"/>
                </mxCell>
                <mxCell id="81" value="" style="group" parent="129" vertex="1" connectable="0">
                    <mxGeometry x="766.6666666666666" y="320.3087885985747" width="153.33333333333331" height="50.80760095011876" as="geometry"/>
                </mxCell>
                <mxCell id="82" value="" style="endArrow=none;html=1;" parent="81" edge="1">
                    <mxGeometry width="50" height="50" relative="1" as="geometry">
                        <mxPoint as="sourcePoint"/>
                        <mxPoint x="153.33333333333331" y="50.80760095011876" as="targetPoint"/>
                    </mxGeometry>
                </mxCell>
                <mxCell id="83" value="True" style="text;html=1;strokeColor=none;fillColor=none;align=center;verticalAlign=middle;whiteSpace=wrap;rounded=0;" parent="81" vertex="1">
                    <mxGeometry x="7.666666666666665" y="35.56532066508312" width="45.99999999999999" height="15.242280285035626" as="geometry"/>
                </mxCell>
                <mxCell id="84" value="False" style="text;html=1;strokeColor=none;fillColor=none;align=center;verticalAlign=middle;whiteSpace=wrap;rounded=0;" parent="81" vertex="1">
                    <mxGeometry x="95.83333333333331" y="35.56532066508312" width="45.99999999999999" height="15.242280285035626" as="geometry"/>
                </mxCell>
                <mxCell id="85" value="" style="group" parent="81" vertex="1" connectable="0">
                    <mxGeometry width="153.33333333333331" height="50.80760095011876" as="geometry"/>
                </mxCell>
                <mxCell id="86" value="" style="rounded=0;whiteSpace=wrap;html=1;" parent="85" vertex="1">
                    <mxGeometry width="153.33333333333331" height="50.80760095011876" as="geometry"/>
                </mxCell>
                <mxCell id="87" value="zipcode == empty" style="text;html=1;strokeColor=none;fillColor=none;align=center;verticalAlign=middle;whiteSpace=wrap;rounded=0;" parent="85" vertex="1">
                    <mxGeometry width="153.33333333333331" height="15.242280285035626" as="geometry"/>
                </mxCell>
                <mxCell id="89" value="" style="rounded=0;whiteSpace=wrap;html=1;" parent="129" vertex="1">
                    <mxGeometry x="843.3333333333331" y="371.1163895486936" width="76.66666666666666" height="50.80760095011876" as="geometry"/>
                </mxCell>
                <mxCell id="99" value="" style="rounded=0;whiteSpace=wrap;html=1;" parent="129" vertex="1">
                    <mxGeometry x="459.99999999999994" y="218.69358669833727" width="153.33333333333331" height="304.8456057007126" as="geometry"/>
                </mxCell>
                <mxCell id="102" value="" style="group" parent="129" vertex="1" connectable="0">
                    <mxGeometry x="766.6666666666666" y="421.9239904988123" width="153.33333333333334" height="101.61959619952498" as="geometry"/>
                </mxCell>
                <mxCell id="90" value="" style="group" parent="102" vertex="1" connectable="0">
                    <mxGeometry width="153.33333333333331" height="50.80760095011876" as="geometry"/>
                </mxCell>
                <mxCell id="91" value="" style="endArrow=none;html=1;" parent="90" edge="1">
                    <mxGeometry width="50" height="50" relative="1" as="geometry">
                        <mxPoint as="sourcePoint"/>
                        <mxPoint x="153.33333333333331" y="50.80760095011876" as="targetPoint"/>
                    </mxGeometry>
                </mxCell>
                <mxCell id="92" value="True" style="text;html=1;strokeColor=none;fillColor=none;align=center;verticalAlign=middle;whiteSpace=wrap;rounded=0;" parent="90" vertex="1">
                    <mxGeometry x="7.666666666666665" y="35.56532066508312" width="45.99999999999999" height="15.242280285035626" as="geometry"/>
                </mxCell>
                <mxCell id="93" value="False" style="text;html=1;strokeColor=none;fillColor=none;align=center;verticalAlign=middle;whiteSpace=wrap;rounded=0;" parent="90" vertex="1">
                    <mxGeometry x="95.83333333333331" y="35.56532066508312" width="45.99999999999999" height="15.242280285035626" as="geometry"/>
                </mxCell>
                <mxCell id="94" value="" style="group" parent="90" vertex="1" connectable="0">
                    <mxGeometry width="153.33333333333331" height="50.80760095011876" as="geometry"/>
                </mxCell>
                <mxCell id="95" value="" style="rounded=0;whiteSpace=wrap;html=1;" parent="94" vertex="1">
                    <mxGeometry width="153.33333333333331" height="50.80760095011876" as="geometry"/>
                </mxCell>
                <mxCell id="96" value="city == empty" style="text;html=1;strokeColor=none;fillColor=none;align=center;verticalAlign=middle;whiteSpace=wrap;rounded=0;" parent="94" vertex="1">
                    <mxGeometry width="153.33333333333331" height="15.242280285035626" as="geometry"/>
                </mxCell>
                <mxCell id="98" value="" style="rounded=0;whiteSpace=wrap;html=1;" parent="102" vertex="1">
                    <mxGeometry x="76.6666666666665" y="50.80760095011881" width="76.66666666666666" height="50.80760095011876" as="geometry"/>
                </mxCell>
                <mxCell id="134" value="Valid = false" style="rounded=0;whiteSpace=wrap;html=1;" vertex="1" parent="102">
                    <mxGeometry x="0.0033333333333303017" y="50.81199524940621" width="76.66666666666666" height="50.80760095011876" as="geometry"/>
                </mxCell>
                <mxCell id="10" value="" style="group" parent="129" vertex="1" connectable="0">
                    <mxGeometry x="459.99999999999994" y="523.5391923990499" width="459.9999999999999" height="50.80760095011877" as="geometry"/>
                </mxCell>
                <mxCell id="8" value="" style="rounded=0;whiteSpace=wrap;html=1;" parent="10" vertex="1">
                    <mxGeometry width="459.9999999999999" height="50.80760095011877" as="geometry"/>
                </mxCell>
                <mxCell id="9" value="" style="endArrow=none;html=1;" parent="10" edge="1">
                    <mxGeometry width="50" height="50" relative="1" as="geometry">
                        <mxPoint as="sourcePoint"/>
                        <mxPoint x="459.9999999999999" y="50.80760095011877" as="targetPoint"/>
                    </mxGeometry>
                </mxCell>
                <mxCell id="11" value="name == empty" style="text;html=1;strokeColor=none;fillColor=none;align=center;verticalAlign=middle;whiteSpace=wrap;rounded=0;" parent="10" vertex="1">
                    <mxGeometry x="109.24999999999997" width="241.49999999999994" height="15.24228028503563" as="geometry"/>
                </mxCell>
                <mxCell id="12" value="true" style="text;html=1;strokeColor=none;fillColor=none;align=center;verticalAlign=middle;whiteSpace=wrap;rounded=0;" parent="10" vertex="1">
                    <mxGeometry x="22.999999999999996" y="35.56532066508314" width="137.99999999999997" height="15.24228028503563" as="geometry"/>
                </mxCell>
                <mxCell id="13" value="false" style="text;html=1;strokeColor=none;fillColor=none;align=center;verticalAlign=middle;whiteSpace=wrap;rounded=0;" parent="10" vertex="1">
                    <mxGeometry x="287.49999999999994" y="35.56532066508314" width="137.99999999999997" height="15.24228028503563" as="geometry"/>
                </mxCell>
                <mxCell id="14" value="Valid = false" style="rounded=0;whiteSpace=wrap;html=1;" parent="129" vertex="1">
                    <mxGeometry x="459.99999999999994" y="574.3467933491686" width="229.99999999999994" height="50.80760095011877" as="geometry"/>
                </mxCell>
                <mxCell id="15" value="" style="rounded=0;whiteSpace=wrap;html=1;" parent="129" vertex="1">
                    <mxGeometry x="689.9999999999999" y="574.3467933491686" width="229.99999999999994" height="50.80760095011877" as="geometry"/>
                </mxCell>
                <mxCell id="103" value="" style="group" parent="129" vertex="1" connectable="0">
                    <mxGeometry x="459.99999999999994" y="624.9334916864607" width="459.9999999999999" height="50.80760095011877" as="geometry"/>
                </mxCell>
                <mxCell id="104" value="" style="rounded=0;whiteSpace=wrap;html=1;" parent="103" vertex="1">
                    <mxGeometry width="459.9999999999999" height="50.80760095011877" as="geometry"/>
                </mxCell>
                <mxCell id="105" value="" style="endArrow=none;html=1;" parent="103" edge="1">
                    <mxGeometry width="50" height="50" relative="1" as="geometry">
                        <mxPoint as="sourcePoint"/>
                        <mxPoint x="459.9999999999999" y="50.80760095011877" as="targetPoint"/>
                    </mxGeometry>
                </mxCell>
                <mxCell id="106" value="title == empty" style="text;html=1;strokeColor=none;fillColor=none;align=center;verticalAlign=middle;whiteSpace=wrap;rounded=0;" parent="103" vertex="1">
                    <mxGeometry x="109.24999999999997" width="241.49999999999994" height="15.24228028503563" as="geometry"/>
                </mxCell>
                <mxCell id="107" value="true" style="text;html=1;strokeColor=none;fillColor=none;align=center;verticalAlign=middle;whiteSpace=wrap;rounded=0;" parent="103" vertex="1">
                    <mxGeometry x="22.999999999999996" y="35.56532066508314" width="137.99999999999997" height="15.24228028503563" as="geometry"/>
                </mxCell>
                <mxCell id="108" value="false" style="text;html=1;strokeColor=none;fillColor=none;align=center;verticalAlign=middle;whiteSpace=wrap;rounded=0;" parent="103" vertex="1">
                    <mxGeometry x="287.49999999999994" y="35.56532066508314" width="137.99999999999997" height="15.24228028503563" as="geometry"/>
                </mxCell>
                <mxCell id="109" value="Valid = false" style="rounded=0;whiteSpace=wrap;html=1;" parent="129" vertex="1">
                    <mxGeometry x="459.99999999999994" y="675.7410926365797" width="229.99999999999994" height="50.80760095011877" as="geometry"/>
                </mxCell>
                <mxCell id="110" value="" style="rounded=0;whiteSpace=wrap;html=1;" parent="129" vertex="1">
                    <mxGeometry x="689.9999999999999" y="675.7410926365797" width="229.99999999999994" height="50.80760095011877" as="geometry"/>
                </mxCell>
                <mxCell id="111" value="" style="rounded=0;whiteSpace=wrap;html=1;" parent="129" vertex="1">
                    <mxGeometry x="613.3299999999999" y="218.69358669833727" width="153.33333333333331" height="304.8456057007126" as="geometry"/>
                </mxCell>
                <mxCell id="112" value="" style="group" parent="129" vertex="1" connectable="0">
                    <mxGeometry x="459.99999999999994" y="828.3847980997623" width="459.9999999999999" height="50.80760095011877" as="geometry"/>
                </mxCell>
                <mxCell id="113" value="" style="rounded=0;whiteSpace=wrap;html=1;" parent="112" vertex="1">
                    <mxGeometry width="459.9999999999999" height="50.80760095011877" as="geometry"/>
                </mxCell>
                <mxCell id="114" value="" style="endArrow=none;html=1;" parent="112" edge="1">
                    <mxGeometry width="50" height="50" relative="1" as="geometry">
                        <mxPoint as="sourcePoint"/>
                        <mxPoint x="459.9999999999999" y="50.80760095011877" as="targetPoint"/>
                    </mxGeometry>
                </mxCell>
                <mxCell id="115" value="Valid == true" style="text;html=1;strokeColor=none;fillColor=none;align=center;verticalAlign=middle;whiteSpace=wrap;rounded=0;" parent="112" vertex="1">
                    <mxGeometry x="109.24999999999997" width="241.49999999999994" height="15.24228028503563" as="geometry"/>
                </mxCell>
                <mxCell id="116" value="true" style="text;html=1;strokeColor=none;fillColor=none;align=center;verticalAlign=middle;whiteSpace=wrap;rounded=0;" parent="112" vertex="1">
                    <mxGeometry x="22.999999999999996" y="35.56532066508314" width="137.99999999999997" height="15.24228028503563" as="geometry"/>
                </mxCell>
                <mxCell id="117" value="false" style="text;html=1;strokeColor=none;fillColor=none;align=center;verticalAlign=middle;whiteSpace=wrap;rounded=0;" parent="112" vertex="1">
                    <mxGeometry x="287.49999999999994" y="35.56532066508314" width="137.99999999999997" height="15.24228028503563" as="geometry"/>
                </mxCell>
                <mxCell id="118" value="ShowForm()" style="rounded=0;whiteSpace=wrap;html=1;" parent="129" vertex="1">
                    <mxGeometry x="689.9999999999999" y="879.1923990498811" width="229.99999999999994" height="50.80760095011877" as="geometry"/>
                </mxCell>
                <mxCell id="119" value="ShowResults()" style="rounded=0;whiteSpace=wrap;html=1;" parent="129" vertex="1">
                    <mxGeometry x="459.99999999999994" y="879.1923990498811" width="229.99999999999994" height="50.80760095011877" as="geometry"/>
                </mxCell>
                <mxCell id="120" value="" style="group" parent="129" vertex="1" connectable="0">
                    <mxGeometry x="459.99999999999994" y="726.3277909738717" width="459.9999999999999" height="50.80760095011877" as="geometry"/>
                </mxCell>
                <mxCell id="121" value="" style="rounded=0;whiteSpace=wrap;html=1;" parent="120" vertex="1">
                    <mxGeometry width="459.9999999999999" height="50.80760095011877" as="geometry"/>
                </mxCell>
                <mxCell id="122" value="" style="endArrow=none;html=1;" parent="120" edge="1">
                    <mxGeometry width="50" height="50" relative="1" as="geometry">
                        <mxPoint as="sourcePoint"/>
                        <mxPoint x="459.9999999999999" y="50.80760095011877" as="targetPoint"/>
                    </mxGeometry>
                </mxCell>
                <mxCell id="123" value="message == empty" style="text;html=1;strokeColor=none;fillColor=none;align=center;verticalAlign=middle;whiteSpace=wrap;rounded=0;" parent="120" vertex="1">
                    <mxGeometry x="109.24999999999997" width="241.49999999999994" height="15.24228028503563" as="geometry"/>
                </mxCell>
                <mxCell id="124" value="true" style="text;html=1;strokeColor=none;fillColor=none;align=center;verticalAlign=middle;whiteSpace=wrap;rounded=0;" parent="120" vertex="1">
                    <mxGeometry x="22.999999999999996" y="35.56532066508314" width="137.99999999999997" height="15.24228028503563" as="geometry"/>
                </mxCell>
                <mxCell id="125" value="false" style="text;html=1;strokeColor=none;fillColor=none;align=center;verticalAlign=middle;whiteSpace=wrap;rounded=0;" parent="120" vertex="1">
                    <mxGeometry x="287.49999999999994" y="35.56532066508314" width="137.99999999999997" height="15.24228028503563" as="geometry"/>
                </mxCell>
                <mxCell id="126" value="Valid = false" style="rounded=0;whiteSpace=wrap;html=1;" parent="129" vertex="1">
                    <mxGeometry x="459.99999999999994" y="777.1353919239905" width="229.99999999999994" height="50.80760095011877" as="geometry"/>
                </mxCell>
                <mxCell id="127" value="" style="rounded=0;whiteSpace=wrap;html=1;" parent="129" vertex="1">
                    <mxGeometry x="689.9999999999999" y="777.1353919239905" width="229.99999999999994" height="50.80760095011877" as="geometry"/>
                </mxCell>
                <mxCell id="131" value="Valid = false" style="rounded=0;whiteSpace=wrap;html=1;" vertex="1" parent="129">
                    <mxGeometry x="766.67" y="167.88598574821856" width="76.66666666666666" height="50.80760095011876" as="geometry"/>
                </mxCell>
                <mxCell id="132" value="Valid = false" style="rounded=0;whiteSpace=wrap;html=1;" vertex="1" parent="129">
                    <mxGeometry x="766.66" y="269.50598574821856" width="76.66666666666666" height="50.80760095011876" as="geometry"/>
                </mxCell>
                <mxCell id="133" value="Valid = false" style="rounded=0;whiteSpace=wrap;html=1;" vertex="1" parent="129">
                    <mxGeometry x="766.67" y="371.1159857482186" width="76.66666666666666" height="50.80760095011876" as="geometry"/>
                </mxCell>
            </root>
        </mxGraphModel>
    </diagram>
</mxfile>